<?xml version="1.0" standalone="no"?>
<!DOCTYPE svg PUBLIC "-//W3C//DTD SVG 20010904//EN"
 "http://www.w3.org/TR/2001/REC-SVG-20010904/DTD/svg10.dtd">
<svg version="1.0" xmlns="http://www.w3.org/2000/svg"
 width="1000.000000pt" height="1000.000000pt" viewBox="0 0 1000.000000 1000.000000"
 preserveAspectRatio="xMidYMid meet">

<g transform="translate(0.000000,1000.000000) scale(0.100000,-0.100000)"
fill="#000000" stroke="none">
<path d="M5830 8860 c-304 -37 -599 -133 -848 -276 l-117 -67 -80 16 c-134 28
-251 37 -466 37 -227 0 -254 -5 -335 -60 -87 -61 -145 -192 -129 -293 16 -99
80 -188 169 -235 50 -26 55 -27 311 -34 267 -6 307 -12 426 -57 156 -59 318
-210 399 -371 57 -114 75 -192 75 -340 0 -82 -5 -157 -14 -190 -66 -266 -272
-479 -543 -562 l-73 -22 -1320 -6 -1320 -5 -52 -27 c-63 -34 -116 -84 -143
-138 -84 -166 -8 -364 164 -429 57 -21 58 -21 1300 -21 1358 0 1326 1 1494
-58 232 -82 407 -267 483 -512 31 -98 34 -308 6 -410 -72 -265 -286 -478 -552
-552 l-80 -23 -1315 -5 -1315 -5 -50 -27 c-177 -94 -222 -301 -102 -472 20
-29 103 -86 147 -102 14 -4 617 -11 1340 -14 l1315 -5 86 -27 c215 -68 407
-241 492 -444 63 -149 74 -367 27 -519 -75 -240 -258 -430 -495 -511 -76 -26
-92 -28 -347 -35 -261 -7 -268 -8 -327 -35 -116 -52 -185 -155 -185 -280 0
-60 4 -81 33 -138 37 -76 105 -137 174 -158 67 -21 515 -16 642 6 93 16 280
72 333 100 22 11 29 7 95 -62 191 -197 392 -304 657 -347 323 -52 672 42 909
244 145 123 230 231 307 389 31 61 57 112 59 112 2 0 39 -11 82 -25 175 -55
348 -68 523 -40 256 42 457 143 636 320 383 379 456 956 179 1420 l-18 31 58
54 c140 131 198 209 276 365 128 259 151 515 73 815 -43 167 -167 384 -282
494 l-41 39 65 69 c230 244 344 621 290 953 -31 185 -103 360 -211 510 -97
135 -291 296 -435 362 -41 19 -81 38 -88 41 -8 4 -31 52 -51 107 -130 348
-283 589 -530 836 -172 171 -352 297 -586 410 -217 104 -385 157 -620 195
-110 18 -452 26 -555 14z m495 -636 c482 -83 903 -392 1119 -822 l35 -70 -47
-13 c-150 -41 -329 -143 -453 -257 l-66 -61 -54 55 c-61 62 -209 161 -303 204
-76 35 -200 74 -281 91 -71 14 -262 17 -357 6 l-67 -7 -6 47 c-4 27 -18 89
-32 138 -61 222 -133 356 -308 571 l-25 31 57 21 c92 33 160 50 278 72 130 23
359 21 510 -6z m-105 -1500 c167 -47 317 -198 363 -364 8 -30 18 -89 21 -130
9 -108 30 -162 87 -224 86 -94 196 -124 320 -87 59 18 80 31 119 71 67 69 89
120 96 221 18 259 161 445 396 516 174 52 395 -12 529 -154 156 -166 189 -387
89 -601 -63 -135 -229 -259 -376 -282 -32 -5 -92 -14 -132 -19 -86 -13 -137
-37 -188 -88 -118 -121 -118 -321 2 -437 57 -55 104 -76 202 -87 185 -21 275
-58 383 -157 100 -92 169 -250 168 -387 0 -130 -61 -267 -164 -371 -109 -110
-225 -157 -382 -155 -165 3 -320 79 -412 205 -53 71 -75 122 -106 239 -66 249
-148 397 -312 563 -221 227 -502 344 -818 344 -103 0 -223 -12 -257 -25 -12
-5 -21 10 -37 67 -71 237 -195 442 -376 617 l-92 89 59 52 c122 108 225 243
315 416 47 90 58 103 100 126 124 66 264 81 403 42z m-11 -2014 c95 -18 196
-73 269 -147 84 -85 113 -139 152 -283 38 -140 59 -198 106 -292 117 -234 344
-441 589 -538 141 -56 336 -94 461 -89 63 2 66 1 104 -36 58 -57 119 -185 133
-277 25 -173 -29 -335 -152 -458 -80 -80 -162 -123 -276 -147 -99 -20 -196 -9
-300 32 -96 39 -160 89 -234 183 -88 110 -145 144 -256 150 -74 4 -89 1 -144
-23 -110 -50 -181 -156 -181 -269 0 -27 7 -92 16 -144 21 -121 9 -202 -47
-318 -53 -108 -132 -189 -238 -242 -166 -83 -335 -80 -503 10 -59 31 -148 109
-148 130 0 5 13 27 29 47 48 61 111 170 152 264 81 184 119 365 119 567 -1
381 -145 725 -417 991 l-95 93 66 59 c105 94 231 260 302 399 15 29 44 100 64
158 36 100 39 106 81 130 92 52 233 72 348 50z"/>
<path d="M3009 7476 c-163 -58 -246 -225 -194 -391 24 -74 95 -153 167 -186
l53 -24 700 0 c694 0 700 0 746 21 67 31 124 87 156 152 39 79 40 193 3 267
-33 68 -99 129 -166 154 -53 20 -72 21 -742 21 -535 -1 -695 -4 -723 -14z"/>
<path d="M1332 5299 c-154 -30 -263 -176 -249 -331 10 -116 75 -204 187 -257
l55 -26 1555 0 1555 0 57 28 c71 35 137 107 162 176 41 116 4 257 -89 339 -95
84 52 77 -1665 78 -839 1 -1544 -2 -1568 -7z"/>
<path d="M3008 3105 c-135 -50 -215 -171 -206 -313 6 -115 71 -211 177 -264
l46 -23 710 0 710 0 50 27 c199 105 232 361 67 510 -91 81 -63 78 -836 77
-551 0 -688 -3 -718 -14z"/>
</g>
</svg>
